<svg width="42" height="43" viewBox="0 0 42 43" fill="none" xmlns="http://www.w3.org/2000/svg">
<path d="M25.6929 42.7625C25.3642 42.6759 25.0612 42.5117 24.8092 42.2837L15.8094 33.9983L3.87272 36.6738C3.4849 36.7615 3.08027 36.7386 2.70482 36.6077C2.32937 36.4769 1.99816 36.2433 1.74885 35.9336C1.49954 35.6238 1.34213 35.2504 1.2945 34.8556C1.24688 34.4609 1.31096 34.0607 1.47945 33.7006L6.62849 22.6945L0.37177 12.2181C0.178475 11.8841 0.0797764 11.5038 0.0862671 11.118C0.0927578 10.7321 0.204193 10.3553 0.408612 10.028C0.625328 9.69513 0.931023 9.42962 1.29101 9.26165C1.65099 9.09368 2.05085 9.02998 2.44521 9.07778L14.6015 10.5091L22.5749 1.35975C22.836 1.05775 23.1768 0.835394 23.5584 0.718155C23.94 0.600915 24.3469 0.593531 24.7325 0.696851C25.1181 0.80017 25.4668 1.01001 25.7387 1.30234C26.0105 1.59467 26.1945 1.95766 26.2696 2.34973L28.6672 14.256L39.9105 19.0946C40.2759 19.2504 40.5904 19.5055 40.8181 19.8309C41.0459 20.1564 41.1779 20.5392 41.1991 20.9358C41.2125 21.3215 41.1206 21.7035 40.9333 22.0409C40.746 22.3783 40.4704 22.6583 40.136 22.8509L29.4793 28.7953L28.4355 40.9014C28.4057 41.3059 28.2607 41.6933 28.0178 42.0181C27.7748 42.3428 27.444 42.5912 27.0645 42.734C26.623 42.8949 26.1406 42.9049 25.6929 42.7625Z" fill="url(#paint0_linear)"/>
<defs>
<linearGradient id="paint0_linear" x1="24.7633" y1="0.705101" x2="14.3085" y2="39.7229" gradientUnits="userSpaceOnUse">
<stop stop-color="#FFF6DC"/>
<stop offset="1" stop-color="#FFC107"/>
</linearGradient>
</defs>
</svg>
